<svg xmlns="http://www.w3.org/2000/svg" width="16.014" height="16.014" viewBox="18 12.062 16.014 16.014"><g data-name="svgexport-16 (1)"><path d="M26.005 12.062A8.015 8.015 0 0 0 18 20.067a8.015 8.015 0 0 0 8.005 8.01 8.015 8.015 0 0 0 8.01-8.01 8.015 8.015 0 0 0-8.012-8.005Zm0 1.067a6.934 6.934 0 0 1 6.944 6.94 6.94 6.94 0 0 1-6.944 6.942 6.934 6.934 0 0 1-6.94-6.944 6.932 6.932 0 0 1 6.94-6.94ZM26 15.8a.535.535 0 0 0-.524.541v.45c-.862.161-1.6.716-1.6 1.678 0 .666.303 1.207.706 1.522.404.314.86.451 1.26.585.4.135.745.262.941.415.198.152.29.283.29.682 0 .888-2.13.888-2.13 0a.535.535 0 1 0-1.067 0c0 .96.738 1.517 1.6 1.679v.447a.535.535 0 1 0 1.067 0v-.45c.862-.16 1.6-.718 1.6-1.678 0-.668-.303-1.208-.706-1.521-.404-.315-.86-.456-1.259-.59-.402-.132-.746-.26-.944-.41-.196-.154-.29-.283-.29-.683 0-.89 2.13-.89 2.13 0a.535.535 0 0 0 1.069 0c0-.96-.738-1.515-1.6-1.678v-.45a.535.535 0 0 0-.545-.54Z" fill="#52525b" fill-rule="evenodd" data-name="Path 84"/></g></svg>