<?xml version="1.0" encoding="utf-8"?>
<svg width="16.014px" height="16.014px" viewBox="0 0 16.014 16.014" version="1.1" xmlns:xlink="http://www.w3.org/1999/xlink" xmlns="http://www.w3.org/2000/svg">
  <defs>
    <path d="M0 0L16.014 0L16.014 16.014L0 16.014L0 0Z" id="path_1" />
    <clipPath id="clip_1">
      <use xlink:href="#path_1" />
    </clipPath>
  </defs>
  <g id="billingdetailicon" clip-path="url(#clip_1)">
    <path d="M0 0L16.014 0L16.014 16.014L0 16.014L0 0Z" id="billingdetailicon" fill="none" fill-rule="evenodd" stroke="none" />
    <path d="M8.005 0C3.58624 0.00551033 0.00551033 3.58624 0 8.005C0.00215912 12.4246 3.58322 16.0089 8.00392 16.015C12.4266 16.0122 16.0112 12.4277 16.0139 8.00499C16.0082 3.58315 12.4231 0.00144672 8.00156 -7.62939e-06L8.005 0ZM8.005 1.067C9.84678 1.06434 11.614 1.79454 12.9167 3.0965C14.2194 4.39847 14.9506 6.16522 14.949 8.007C14.9496 9.84825 14.2182 11.6146 12.9159 12.9167C11.6135 14.2189 9.84703 14.95 8.00539 14.949C6.16361 14.9506 4.39686 14.2194 3.09489 12.9167C1.79293 11.614 1.06274 9.84678 1.06539 8.005C1.06319 6.16403 1.79361 4.39755 3.09552 3.09553C4.39743 1.79352 6.16385 1.06295 8.00511 1.065L8.005 1.067ZM8 3.738C7.70648 3.74402 7.47264 3.98544 7.476 4.279L7.476 4.729C6.614 4.89 5.876 5.445 5.876 6.407C5.876 7.073 6.179 7.614 6.582 7.929C6.986 8.243 7.442 8.38 7.842 8.514C8.242 8.649 8.587 8.776 8.783 8.929C8.981 9.081 9.073 9.212 9.073 9.611C9.073 10.499 6.943 10.499 6.943 9.611C6.95802 9.41084 6.85975 9.21912 6.68848 9.11446C6.51722 9.00979 6.30178 9.00979 6.13051 9.11446C5.95925 9.21912 5.86098 9.41084 5.876 9.611C5.876 10.571 6.614 11.128 7.476 11.29L7.476 11.737C7.46097 11.9371 7.55925 12.1289 7.73051 12.2335C7.90178 12.3382 8.11721 12.3382 8.28848 12.2335C8.45974 12.1289 8.55802 11.9372 8.543 11.737L8.543 11.287C9.40499 11.127 10.143 10.569 10.143 9.609C10.143 8.941 9.84 8.401 9.437 8.088C9.033 7.773 8.577 7.632 8.178 7.498C7.776 7.366 7.432 7.238 7.234 7.088C7.038 6.934 6.94399 6.805 6.94399 6.405C6.94399 5.515 9.07399 5.515 9.07399 6.405C9.08638 6.69121 9.32201 6.91687 9.60849 6.91687C9.89497 6.91687 10.1306 6.69121 10.143 6.405C10.143 5.445 9.40499 4.89 8.54299 4.727L8.54299 4.277C8.54437 4.13249 8.48723 3.99358 8.38457 3.89186C8.28192 3.79015 8.14248 3.73429 7.99799 3.737L8 3.738Z" id="Group" fill="#2563EB" fill-rule="evenodd" stroke="none" />
  </g>
</svg>