<?xml version="1.0" encoding="utf-8"?>
<svg width="13.559529px" height="16.661003px" viewBox="0 0 13.559529 16.661003" version="1.1" xmlns:xlink="http://www.w3.org/1999/xlink" xmlns="http://www.w3.org/2000/svg">
  <path d="M2.485 7.265L3.33 8.15C3.4399 8.26416 3.59154 8.32866 3.75 8.32866C3.90846 8.32866 4.0601 8.26416 4.17 8.15L5.652 6.6C5.8457 6.36401 5.82453 6.01854 5.60345 5.80797C5.38238 5.5974 5.03629 5.59305 4.81 5.798L3.752 6.908L3.327 6.462C3.10212 6.24699 2.7479 6.24686 2.52288 6.46172C2.29785 6.67658 2.28161 7.03043 2.486 7.265L2.485 7.265ZM2.485 11.914L3.33 12.8C3.4399 12.9142 3.59154 12.9787 3.75 12.9787C3.90846 12.9787 4.0601 12.9142 4.17 12.8L5.651 11.25C5.84808 11.0143 5.82844 10.6661 5.60611 10.4541C5.38379 10.2421 5.03508 10.239 4.809 10.447L3.751 11.557L3.326 11.111C3.10112 10.896 2.7469 10.8959 2.52187 11.1107C2.29684 11.3256 2.2806 11.6794 2.485 11.914L2.485 11.914ZM7.555 7.555L10.655 7.555C10.8627 7.55513 11.0546 7.44442 11.1585 7.26461C11.2623 7.08479 11.2623 6.86321 11.1585 6.6834C11.0546 6.50358 10.8627 6.39287 10.655 6.393L7.55501 6.393C7.23427 6.3932 6.97437 6.65327 6.97437 6.974C6.97437 7.29474 7.23427 7.5548 7.55501 7.555L7.555 7.555ZM7.555 12.205L10.655 12.205C10.9762 12.205 11.2365 11.9447 11.2365 11.6235C11.2365 11.3023 10.9762 11.042 10.655 11.042L7.555 11.042C7.23426 11.0422 6.97436 11.3023 6.97436 11.623C6.97437 11.9437 7.23427 12.2038 7.555 12.204L7.555 12.205ZM10.312 1.202L10.22 0.928C10.0356 0.373765 9.51709 -0.000136696 8.933 3.74891e-08L4.627 3.74891e-08C4.043 3.74891e-08 3.525 0.374 3.34 0.927L3.248 1.202C3.14942 1.49837 3.09911 1.80866 3.099 2.121L3.099 2.131C3.099 2.491 3.242 2.835 3.497 3.089C3.751 3.344 4.096 3.487 4.455 3.487L9.105 3.487C9.465 3.487 9.809 3.344 10.063 3.089C10.318 2.835 10.461 2.49 10.461 2.131L10.461 2.121C10.461 1.809 10.411 1.498 10.311 1.201L10.312 1.202ZM9.117 1.295L9.209 1.569C9.269 1.747 9.299 1.933 9.299 2.121L9.299 2.131C9.299 2.23814 9.21214 2.325 9.105 2.325L4.455 2.325C4.34825 2.32445 4.262 2.23775 4.262 2.131L4.262 2.121C4.262 1.933 4.292 1.747 4.351 1.569L4.443 1.295C4.469 1.215 4.543 1.162 4.627 1.162L8.933 1.162C9.017 1.162 9.091 1.216 9.117 1.295L9.117 1.295ZM3.68 1.162L2.13 1.162C1.56492 1.162 1.02299 1.38655 0.623509 1.78622C0.224027 2.18588 -0.000265327 2.72792 3.25606e-08 3.293L3.25606e-08 14.53C-0.00039002 15.0946 0.223783 15.6367 0.623176 16.0365C1.02257 16.4362 1.56445 16.6609 2.12953 16.661L11.4295 16.661C12.6059 16.661 13.5595 15.7074 13.5595 14.531L13.5595 3.292C13.5595 2.11563 12.6059 1.162 11.4295 1.162L9.88 1.162C9.55927 1.1622 9.29936 1.42227 9.29936 1.743C9.29937 2.06374 9.55927 2.3238 9.88 2.324L11.43 2.324C11.964 2.324 12.398 2.758 12.398 3.292L12.398 14.53C12.398 15.0652 11.9642 15.499 11.429 15.499L2.131 15.499C1.59584 15.499 1.162 15.0652 1.162 14.53L1.162 3.293C1.162 2.759 1.596 2.325 2.131 2.325L3.68 2.325C4.00115 2.325 4.2615 2.06465 4.2615 1.7435C4.2615 1.42235 4.00115 1.162 3.68 1.162L3.68 1.162Z" id="Group" fill="#2563EB" stroke="none" />
</svg>