<svg xmlns="http://www.w3.org/2000/svg" width="13.561" height="16.66" viewBox="3.22 2 13.561 16.66"><g data-name="svgexport-7 (16) 1"><g data-name="svgexport-16 (2)"><path d="m5.705 9.265.845.885a.583.583 0 0 0 .84 0L8.872 8.6a.583.583 0 0 0-.842-.802l-1.058 1.11-.425-.446a.582.582 0 0 0-.841.803Zm0 4.649.845.886a.583.583 0 0 0 .84 0l1.481-1.55a.583.583 0 0 0-.842-.803l-1.058 1.11-.425-.446a.582.582 0 0 0-.841.803Zm5.07-4.359h3.1a.581.581 0 1 0 0-1.162h-3.1a.581.581 0 0 0 0 1.162Zm0 4.65h3.1a.581.581 0 1 0 0-1.163h-3.1a.581.581 0 0 0 0 1.162Zm2.757-11.003-.092-.274A1.356 1.356 0 0 0 12.153 2H7.847c-.584 0-1.102.374-1.287.927l-.092.275a2.915 2.915 0 0 0-.149.919v.01c0 .36.143.704.398.958.254.255.599.398.958.398h4.65c.36 0 .704-.143.958-.398.255-.254.398-.599.398-.958v-.01c0-.312-.05-.623-.15-.92Zm-1.195.093.092.274c.06.178.09.364.09.552v.01a.194.194 0 0 1-.194.194h-4.65a.194.194 0 0 1-.193-.194v-.01c0-.188.03-.374.089-.552l.092-.274c.026-.08.1-.133.184-.133h4.306c.084 0 .158.054.184.133Z" fill="#52525b" fill-rule="evenodd" data-name="Path 85"/><path d="M6.9 3.162H5.35a2.13 2.13 0 0 0-2.13 2.131V16.53a2.13 2.13 0 0 0 2.13 2.131h9.3a2.13 2.13 0 0 0 2.13-2.13V5.292a2.13 2.13 0 0 0-2.13-2.13H13.1a.581.581 0 0 0 0 1.162h1.55c.534 0 .968.434.968.968V16.53a.969.969 0 0 1-.969.969H5.351a.969.969 0 0 1-.969-.969V5.293c0-.534.434-.968.969-.968H6.9a.581.581 0 0 0 0-1.163Z" fill="#52525b" fill-rule="evenodd" data-name="Path 86"/></g></g></svg>