<svg xmlns="http://www.w3.org/2000/svg" width="24" height="24" viewBox="0 0 24 24">
  <g id="google_2" data-name="google 2" transform="translate(1170.574 387)">
    <path id="Vector" d="M11.529.625a7.312,7.312,0,0,1,.137,1.486,11.3,11.3,0,0,1-6.1,9.954L3.179,8.13A7.228,7.228,0,0,0,6.4,4.539H.8A.777.777,0,0,1,0,3.782V.757A.777.777,0,0,1,.8,0h9.95A.789.789,0,0,1,11.529.625Z" transform="translate(-1158.24 -376.626)" fill="#167ee6"/>
    <path id="Vector-2" data-name="Vector" d="M14.266,2.581l2.389,3.936v.005a12.654,12.654,0,0,1-6.1,1.555A12.3,12.3,0,0,1,0,2.269L4.136,0a7.5,7.5,0,0,0,6.421,3.536,7.656,7.656,0,0,0,3.709-.954Z" transform="translate(-1168.936 -371.078)" fill="#12b347"/>
    <path id="Vector-3" data-name="Vector" d="M0,5.5V.954A7.656,7.656,0,0,0,3.709,0L6.1,3.936v.005A12.653,12.653,0,0,1,0,5.5Z" transform="translate(-1158.639 -368.496)" fill="#0f993e"/>
    <path id="Vector-4" data-name="Vector" d="M5.775,9.328,1.639,11.6a11.073,11.073,0,0,1,0-11.6L5.775,2.269a6.715,6.715,0,0,0,0,7.059Z" transform="translate(-1170.574 -380.798)" fill="#ffd500"/>
    <path id="Vector-5" data-name="Vector" d="M4.136,8.078,0,5.809A12.3,12.3,0,0,1,10.557,0a12.524,12.524,0,0,1,7.986,2.848.738.738,0,0,1,.046,1.116L16.337,6.107a.822.822,0,0,1-1.066.046,7.621,7.621,0,0,0-4.713-1.61A7.5,7.5,0,0,0,4.136,8.078Z" transform="translate(-1168.936 -387)" fill="#ff4b26"/>
    <path id="Vector-6" data-name="Vector" d="M0,4.542V0A12.524,12.524,0,0,1,7.986,2.848a.738.738,0,0,1,.046,1.116L5.78,6.107a.822.822,0,0,1-1.066.046A7.621,7.621,0,0,0,0,4.542Z" transform="translate(-1158.674 -387)" fill="#d93f21"/>
  </g>
</svg>
