<?xml version="1.0" encoding="utf-8"?>
<svg width="14.358px" height="14.768px" viewBox="0 0 14.358 14.768" version="1.1" xmlns:xlink="http://www.w3.org/1999/xlink" xmlns="http://www.w3.org/2000/svg">
  <defs>
    <path d="M0 0L14.358 0L14.358 14.768L0 14.768L0 0Z" id="path_1" />
    <clipPath id="clip_1">
      <use xlink:href="#path_1" />
    </clipPath>
  </defs>
  <g id="historyicon" clip-path="url(#clip_1)">
    <path d="M0 0L14.358 0L14.358 14.768L0 14.768L0 0Z" id="historyicon" fill="none" fill-rule="evenodd" stroke="none" />
    <path d="M6.829 5.147L6.829 7.895C6.829 8.121 7.013 8.305 7.239 8.305L9.072 8.305C9.3509 8.305 9.577 8.5311 9.577 8.81C9.577 9.0889 9.3509 9.315 9.072 9.315L7.24 9.315C6.45605 9.3139 5.82065 8.67895 5.819 7.895L5.819 5.147C5.819 4.8681 6.0451 4.642 6.324 4.642C6.6029 4.642 6.829 4.8681 6.829 5.147L6.829 5.147ZM14.357 7.589C14.357 9.506 13.611 11.309 12.255 12.665C10.9118 14.0158 9.08396 14.773 7.179 14.768C5.2737 14.7733 3.44549 14.016 2.102 12.665C0.751595 11.3216 -0.00529909 9.49381 -9.53676e-07 7.589C-9.53676e-07 6.449 0.259999 5.359 0.770999 4.349C0.899876 4.10585 1.1997 4.01065 1.44524 4.13492C1.69077 4.25919 1.79161 4.55716 1.672 4.805C1.23373 5.66775 1.00683 6.62232 1.01 7.59C1.01 9.237 1.651 10.786 2.816 11.952C3.97051 13.1123 5.54117 13.7626 7.178 13.758C8.8148 13.7625 10.3854 13.1122 11.54 11.952C12.7007 10.7977 13.3514 9.22697 13.347 7.59C13.3513 5.95315 12.7006 4.38249 11.5401 3.22807C10.3858 2.06707 8.81513 1.41602 7.178 1.42C6.176 1.42 5.198 1.66 4.321 2.12L5.127 2.373C5.30561 2.42151 5.44338 2.56384 5.48604 2.74394C5.52871 2.92403 5.46944 3.11304 5.33157 3.23652C5.1937 3.36001 4.99933 3.39817 4.825 3.336L3.193 2.824C3.01099 2.76595 2.86096 2.63545 2.77826 2.46324C2.69556 2.29103 2.68751 2.09234 2.756 1.914L3.379 0.32C3.48654 0.0695941 3.77335 -0.0503232 4.02712 0.0490234C4.28089 0.14837 4.41005 0.431142 4.319 0.688L4.171 1.068C5.11408 0.633014 6.14043 0.408159 7.179 0.408999C9.096 0.408999 10.899 1.156 12.255 2.512C13.6054 3.85541 14.3623 5.68319 14.357 7.588L14.357 7.589Z" id="Group" fill="#2563EB" stroke="none" />
  </g>
</svg>