<svg xmlns="http://www.w3.org/2000/svg" width="14.358" height="14.768" viewBox="2.625 3 14.358 14.768"><g data-name="svgexport-7 (16) 1"><g data-name="i"><g data-name="svgexport-7 (18) 1"><g data-name="Group"><path d="M9.454 8.147v2.748c0 .226.184.41.41.41h1.833a.505.505 0 0 1 0 1.01H9.865a1.423 1.423 0 0 1-1.421-1.42V8.147a.505.505 0 0 1 1.01 0Z" fill="#52525b" fill-rule="evenodd" data-name="Vector"/><path d="M16.982 10.589c0 1.917-.746 3.72-2.102 5.076a7.132 7.132 0 0 1-5.076 2.103 7.132 7.132 0 0 1-5.077-2.103 7.132 7.132 0 0 1-2.102-5.076c0-1.14.26-2.23.771-3.24a.505.505 0 0 1 .901.456 6.105 6.105 0 0 0-.662 2.785c0 1.647.641 3.196 1.806 4.362a6.129 6.129 0 0 0 4.362 1.806 6.13 6.13 0 0 0 4.362-1.806 6.129 6.129 0 0 0 1.807-4.362 6.13 6.13 0 0 0-1.807-4.362A6.13 6.13 0 0 0 9.803 4.42c-1.002 0-1.98.24-2.857.7l.806.253a.505.505 0 1 1-.302.963l-1.632-.512a.694.694 0 0 1-.437-.91l.623-1.594a.505.505 0 0 1 .94.368l-.148.38a7.168 7.168 0 0 1 3.008-.659c1.917 0 3.72.747 5.076 2.103a7.132 7.132 0 0 1 2.102 5.076Z" fill="#52525b" fill-rule="evenodd" data-name="Vector"/></g></g></g></g></svg>