<svg xmlns="http://www.w3.org/2000/svg" width="14.574" height="12.834" viewBox="0 0 14.574 12.834">
  <g id="noun-logout-1251677_1" data-name="noun-logout-1251677 1" transform="translate(-3.426 -4.166)">
    <g id="Group">
      <path id="Vector" d="M8.058,4.344a.592.592,0,0,1-.594-.592V1.777a.592.592,0,0,0-.592-.592H1.777a.592.592,0,0,0-.592.592v9.28a.592.592,0,0,0,.592.592H6.871a.592.592,0,0,0,.592-.592V9.28a.592.592,0,0,1,1.185,0v1.777a1.777,1.777,0,0,1-1.777,1.777H1.777A1.777,1.777,0,0,1,0,11.057V1.777A1.777,1.777,0,0,1,1.777,0h5.1A1.777,1.777,0,0,1,8.65,1.777V3.751a.592.592,0,0,1-.592.592Z" transform="translate(18.001 17) rotate(180)" fill="#191d23"/>
      <path id="Vector-2" data-name="Vector" d="M0,3.758a.592.592,0,0,1,.592-.586H8.729L6.534,1A.592.592,0,0,1,7.365.156l3.22,3.181a.593.593,0,0,1,0,.843L7.365,7.365a.592.592,0,0,1-.831-.843h0l2.2-2.172H.592A.593.593,0,0,1,0,3.758Z" transform="translate(14.188 14.242) rotate(180)" fill="#191d23"/>
    </g>
  </g>
</svg>
