<svg xmlns="http://www.w3.org/2000/svg" width="46.627" height="28.828" viewBox="0 0 46.627 28.828">
  <g id="MasterCard" transform="translate(306.185 -167.001)">
    <g id="Group" transform="translate(-306.185 167.001)">
      <g id="Group-2" data-name="Group" transform="translate(0 0)">
        <path id="Vector" d="M12.611,22.665H0V0H12.611Z" transform="translate(17.007 3.084)" fill="#ff5f00"/>
        <g id="Group-3" data-name="Group" transform="translate(0 0)">
          <path id="Vector-2" data-name="Vector" d="M17.815-5.586a14.39,14.39,0,0,1,5.5-11.332A14.351,14.351,0,0,0,14.412-20,14.413,14.413,0,0,0,0-5.586,14.413,14.413,0,0,0,14.412,8.828,14.351,14.351,0,0,0,23.32,5.746,14.39,14.39,0,0,1,17.815-5.586Z" transform="translate(0 20)" fill="#eb001b"/>
        </g>
        <g id="Group-4" data-name="Group" transform="translate(23.306)">
          <path id="Vector-3" data-name="Vector" d="M8.908-20A14.356,14.356,0,0,0,0-16.918,14.388,14.388,0,0,1,5.506-5.586,14.388,14.388,0,0,1,0,5.746,14.355,14.355,0,0,0,8.908,8.828,14.413,14.413,0,0,0,23.321-5.586,14.413,14.413,0,0,0,8.908-20Z" transform="translate(0 20)" fill="#f79e1b"/>
        </g>
      </g>
      <g id="Group-5" data-name="Group" transform="translate(3.673 11.276)">
        <path id="Vector-4" data-name="Vector" d="M7.172-.316A1.075,1.075,0,0,1,8.259-1.463,1.074,1.074,0,0,1,9.338-.316,1.074,1.074,0,0,1,8.259.831,1.075,1.075,0,0,1,7.172-.316Zm2.9,0V-2.107H9.293v.435A1.358,1.358,0,0,0,8.162-2.2,1.8,1.8,0,0,0,6.37-.316,1.8,1.8,0,0,0,8.162,1.565,1.358,1.358,0,0,0,9.293,1.04v.435h.779Zm26.32,0a1.075,1.075,0,0,1,1.087-1.147A1.074,1.074,0,0,1,38.558-.316,1.074,1.074,0,0,1,37.479.831,1.075,1.075,0,0,1,36.392-.316Zm2.9,0v-3.23h-.78v1.873A1.358,1.358,0,0,0,37.382-2.2,1.8,1.8,0,0,0,35.59-.316a1.8,1.8,0,0,0,1.792,1.881,1.358,1.358,0,0,0,1.131-.525v.435h.78ZM19.74-1.5a.89.89,0,0,1,.907.869H18.788A.922.922,0,0,1,19.74-1.5Zm.015-.7A1.75,1.75,0,0,0,17.971-.316a1.767,1.767,0,0,0,1.837,1.881,2.177,2.177,0,0,0,1.469-.5L20.894.486a1.713,1.713,0,0,1-1.042.375,1,1,0,0,1-1.071-.877h2.66c.008-.1.015-.195.015-.3a1.718,1.718,0,0,0-1.7-1.881Zm9.4,1.881a1.075,1.075,0,0,1,1.087-1.147A1.074,1.074,0,0,1,31.326-.316,1.074,1.074,0,0,1,30.247.831,1.075,1.075,0,0,1,29.16-.316Zm2.9,0V-2.107h-.779v.435A1.359,1.359,0,0,0,30.15-2.2,1.8,1.8,0,0,0,28.358-.316,1.8,1.8,0,0,0,30.15,1.565a1.359,1.359,0,0,0,1.131-.525v.435h.779Zm-7.3,0a1.81,1.81,0,0,0,1.911,1.881,1.875,1.875,0,0,0,1.288-.427l-.374-.63a1.574,1.574,0,0,1-.938.323A1.07,1.07,0,0,1,25.57-.316a1.07,1.07,0,0,1,1.079-1.147,1.574,1.574,0,0,1,.938.323l.374-.63A1.876,1.876,0,0,0,26.672-2.2,1.81,1.81,0,0,0,24.761-.316ZM34.8-2.2a1.057,1.057,0,0,0-.944.525v-.435h-.772V1.475h.78V-.533c0-.593.255-.922.764-.922a1.263,1.263,0,0,1,.487.09l.24-.734a1.659,1.659,0,0,0-.555-.1Zm-20.879.375A2.679,2.679,0,0,0,12.463-2.2c-.908,0-1.492.435-1.492,1.147,0,.584.435.944,1.236,1.057l.368.052c.427.06.629.172.629.375,0,.277-.285.435-.817.435A1.908,1.908,0,0,1,11.2.494l-.367.606a2.584,2.584,0,0,0,1.551.465c1.034,0,1.634-.487,1.634-1.169,0-.63-.472-.959-1.252-1.071L12.4-.729c-.337-.045-.607-.112-.607-.352,0-.262.255-.419.682-.419a2.311,2.311,0,0,1,1.117.307ZM23.974-2.2a1.055,1.055,0,0,0-.944.525v-.435h-.772V1.475h.779V-.533c0-.593.255-.922.764-.922a1.263,1.263,0,0,1,.487.09l.24-.734a1.659,1.659,0,0,0-.555-.1Zm-6.647.09H16.053V-3.194h-.787v1.087h-.727V-1.4h.727V.239c0,.831.323,1.326,1.244,1.326a1.828,1.828,0,0,0,.974-.277L17.259.621a1.442,1.442,0,0,1-.69.2c-.389,0-.516-.24-.516-.6V-1.4h1.274ZM5.681,1.475V-.773A1.334,1.334,0,0,0,4.272-2.2a1.387,1.387,0,0,0-1.259.637A1.315,1.315,0,0,0,1.829-2.2,1.185,1.185,0,0,0,.78-1.665v-.442H0V1.475H.787V-.511a.838.838,0,0,1,.877-.952c.517,0,.779.337.779.944V1.475H3.23V-.511a.845.845,0,0,1,.877-.952c.532,0,.787.337.787.944V1.475Z" transform="translate(0 3.546)" fill="#fff"/>
      </g>
    </g>
  </g>
</svg>
