<?xml version="1.0" encoding="utf-8"?>
<svg width="17.47633px" height="17.568348px" viewBox="0 0 17.47633 17.568348" version="1.1" xmlns:xlink="http://www.w3.org/1999/xlink" xmlns="http://www.w3.org/2000/svg">
  <path d="M4.053 6.27435C3.08413 5.37074 2.68557 4.01044 3.01358 2.72684C3.34159 1.44325 4.3439 0.440938 5.6275 0.112926C6.9111 -0.215086 8.27139 0.183482 9.175 1.15235C10.5066 2.58012 10.4678 4.80613 9.08731 6.18665C7.70679 7.56718 5.48078 7.60596 4.05301 6.27436L4.053 6.27435ZM4.957 2.05535C4.16708 2.84653 4.0449 4.08507 4.665 5.01535C5.21502 5.83926 6.22346 6.22866 7.18447 5.98823C8.14549 5.7478 8.85175 4.92941 8.94901 3.94356C9.04626 2.95771 8.51352 2.01709 7.61801 1.59351C6.7225 1.16994 5.65741 1.35479 4.957 2.05535L4.957 2.05535ZM1.278 13.5353C1.278 14.8673 1.853 15.4363 3.198 15.4363L6.608 15.4363C6.84251 15.4271 7.06328 15.5469 7.18329 15.7486C7.3033 15.9503 7.3033 16.2014 7.18329 16.4031C7.06328 16.6048 6.8425 16.7246 6.608 16.7153L3.198 16.7153C1.136 16.7153 0 15.5853 0 13.5353C0 11.2653 1.284 8.61535 4.903 8.61535L8.313 8.61535C8.96992 8.604 9.62356 8.71035 10.243 8.92935C10.5418 9.07322 10.6813 9.42155 10.5642 9.73187C10.4471 10.0422 10.1124 10.2117 9.793 10.1223C9.31718 9.95883 8.81597 9.88162 8.313 9.89435L4.903 9.89435C3.9177 9.81849 2.94865 10.1782 2.25142 10.8785C1.55419 11.5788 1.19881 12.5494 1.279 13.5343L1.278 13.5353ZM17.037 10.0013C17.3182 10.281 17.4763 10.6612 17.4763 11.0578C17.4763 11.4544 17.3182 11.8347 17.037 12.1143L11.75 17.3823C11.6302 17.501 11.4686 17.5678 11.3 17.5683L9.167 17.5683C8.81393 17.5678 8.528 17.2814 8.528 16.9283L8.528 14.7983C8.52747 14.6288 8.5948 14.466 8.71499 14.3464L13.982 9.05636C14.2605 8.77432 14.6406 8.61582 15.037 8.61636C15.433 8.6148 15.8131 8.77223 16.092 9.05336L17.042 10.0034L17.037 10.0013ZM14.564 12.7743L13.32 11.5303L9.805 15.0603L9.805 16.2893L11.033 16.2893L14.563 12.7743L14.564 12.7743ZM16.184 11.1383C16.217 11.0588 16.1988 10.9673 16.138 10.9063L15.188 9.95635C15.1044 9.8744 14.9706 9.8744 14.887 9.95635L14.223 10.6243L15.47 11.8723L16.137 11.2083C16.1572 11.1884 16.1732 11.1646 16.184 11.1383L16.184 11.1383Z" id="Group" fill="#2563EB" fill-rule="evenodd" stroke="none" />
</svg>