<svg xmlns="http://www.w3.org/2000/svg" width="17.476" height="17.479" viewBox="1.621 1.621 17.476 17.479"><g data-name="svgexport-7 (16) 1"><g data-name="Group"><path d="M5.675 7.806a3.624 3.624 0 1 1 5.122-5.122 3.624 3.624 0 0 1-5.122 5.122Zm.904-4.219a2.347 2.347 0 0 0-.292 2.96 2.345 2.345 0 1 0 .292-2.96ZM2.9 15.067c0 1.332.575 1.901 1.92 1.901h3.41a.64.64 0 1 1 0 1.279h-3.41c-2.062 0-3.198-1.13-3.198-3.18 0-2.27 1.284-4.92 4.903-4.92h3.41a5.505 5.505 0 0 1 1.93.314.64.64 0 0 1-.45 1.193 4.225 4.225 0 0 0-1.48-.228h-3.41a3.376 3.376 0 0 0-3.624 3.64Zm15.759-3.534a1.49 1.49 0 0 1 0 2.113l-5.287 5.268a.642.642 0 0 1-.45.186h-2.133a.64.64 0 0 1-.639-.64V16.33a.635.635 0 0 1 .187-.452l5.267-5.29a1.48 1.48 0 0 1 1.055-.44 1.478 1.478 0 0 1 1.055.437l.95.95Zm-2.473 2.773-1.244-1.244-3.515 3.53v1.229h1.228l3.53-3.515Zm1.62-1.636a.213.213 0 0 0-.046-.232l-.95-.95a.215.215 0 0 0-.301 0l-.664.668 1.247 1.248.667-.664a.213.213 0 0 0 .047-.07Z" fill="#52525b" fill-rule="evenodd" data-name="Vector"/></g></g></svg>