<svg xmlns="http://www.w3.org/2000/svg" width="15.875" height="17.479" viewBox="2.521 1 15.875 17.479"><g data-name="svgexport-7 (16) 1"><g data-name="i"><g data-name="svgexport-7 (17) 1"><g data-name="Group"><path d="M18.395 5.144v1.929c0 2.517-.754 4.94-2.18 7.009a12.225 12.225 0 0 1-5.204 4.283 1.39 1.39 0 0 1-1.105 0 12.225 12.225 0 0 1-5.204-4.283 12.288 12.288 0 0 1-2.181-7.01V5.145c0-.593.375-1.12.934-1.313A3.05 3.05 0 0 0 5.337 1.94a1.383 1.383 0 0 1 1.309-.94h7.625c.592 0 1.117.378 1.308.94a3.05 3.05 0 0 0 1.882 1.892c.56.192.934.72.934 1.313Zm-1.024 0a.362.362 0 0 0-.243-.344 4.08 4.08 0 0 1-2.518-2.532.359.359 0 0 0-.34-.244H6.647a.359.359 0 0 0-.34.244A4.08 4.08 0 0 1 3.789 4.8a.362.362 0 0 0-.243.344v1.929c0 2.308.692 4.53 2 6.427a11.2 11.2 0 0 0 4.768 3.925.366.366 0 0 0 .29 0 11.201 11.201 0 0 0 4.768-3.925c1.309-1.896 2-4.119 2-6.427v-1.93Z" fill="#52525b" fill-rule="evenodd" data-name="Vector"/><path d="M12.634 7.64c.68 0 1.233.553 1.233 1.233v2.947a2.3 2.3 0 0 1-2.297 2.297H9.345A2.3 2.3 0 0 1 7.05 11.82V8.873c0-.68.553-1.233 1.233-1.233h.035V6.182c0-1.181.96-2.142 2.14-2.142 1.181 0 2.142.96 2.142 2.142V7.64h.035Zm-3.293 0h2.234V6.182c0-.616-.501-1.117-1.117-1.117s-1.117.5-1.117 1.117V7.64Zm3.502 1.233a.21.21 0 0 0-.21-.209H8.283a.21.21 0 0 0-.21.21v2.946c0 .702.572 1.273 1.273 1.273h2.225c.702 0 1.273-.571 1.273-1.273V8.873Z" fill="#52525b" fill-rule="evenodd" data-name="Vector"/><path d="M10.97 10.394v.968a.512.512 0 1 1-1.024 0v-.968a.512.512 0 1 1 1.024 0Z" fill="#52525b" fill-rule="evenodd" data-name="Vector"/></g></g></g></g></svg>