<?xml version="1.0" encoding="utf-8"?>
<svg width="15.875px" height="17.479px" viewBox="0 0 15.875 17.479" version="1.1" xmlns:xlink="http://www.w3.org/1999/xlink" xmlns="http://www.w3.org/2000/svg">
  <defs>
    <path d="M0 0L15.875 0L15.875 17.479L0 17.479L0 0Z" id="path_1" />
    <clipPath id="clip_1">
      <use xlink:href="#path_1" />
    </clipPath>
  </defs>
  <g id="securityicon" clip-path="url(#clip_1)">
    <path d="M0 0L15.875 0L15.875 17.479L0 17.479L0 0Z" id="securityicon" fill="none" fill-rule="evenodd" stroke="none" />
    <path d="M15.874 4.144L15.874 6.073C15.874 8.59 15.12 11.013 13.694 13.082C12.3949 14.9691 10.5917 16.4532 8.49 17.365C8.13749 17.5177 7.73751 17.5177 7.385 17.365C5.28328 16.4532 3.48008 14.9691 2.181 13.082C0.756659 11.0222 -0.00431347 8.57632 0 6.072L0 4.145C0 3.552 0.375 3.025 0.934 2.832C1.81859 2.5238 2.5125 1.82621 2.816 0.940001C3.00584 0.378554 3.53233 0.000484467 4.125 3.57628e-07L11.75 3.57628e-07C12.342 3.57628e-07 12.867 0.378 13.058 0.94C13.3615 1.82621 14.0554 2.5238 14.94 2.832C15.5 3.024 15.874 3.552 15.874 4.145L15.874 4.144ZM14.85 4.144C14.8509 3.98917 14.7532 3.8509 14.607 3.8C13.4233 3.38762 12.4948 2.45399 12.089 1.268C12.0397 1.12219 11.9029 1.02404 11.749 1.024L4.126 1.024C3.97208 1.02404 3.83531 1.12219 3.786 1.268C3.38018 2.45399 2.45172 3.38762 1.268 3.8C1.12176 3.8509 1.02409 3.98917 1.025 4.144L1.025 6.073C1.025 8.381 1.717 10.603 3.025 12.5C4.21509 14.2293 5.86724 15.5894 7.793 16.425C7.88554 16.4649 7.99046 16.4649 8.083 16.425C10.0087 15.5893 11.6609 14.2293 12.851 12.5C14.16 10.604 14.851 8.381 14.851 6.073L14.851 4.143L14.85 4.144ZM10.113 6.64C10.793 6.64 11.346 7.193 11.346 7.873L11.346 10.82C11.3444 12.0879 10.3169 13.1153 9.04903 13.117L6.824 13.117C5.55687 13.1142 4.53065 12.0871 4.529 10.82L4.529 7.873C4.529 7.193 5.082 6.64 5.762 6.64L5.797 6.64L5.797 5.182C5.797 4.001 6.757 3.04 7.937 3.04C9.118 3.04 10.079 4 10.079 5.182L10.079 6.64L10.114 6.64L10.113 6.64ZM6.82 6.64L9.054 6.64L9.054 5.182C9.054 4.566 8.553 4.065 7.937 4.065C7.321 4.065 6.82 4.565 6.82 5.182L6.82 6.64L6.82 6.64ZM10.322 7.873C10.3214 7.75741 10.2276 7.664 10.112 7.664L5.762 7.664C5.64602 7.664 5.552 7.75802 5.552 7.874L5.552 10.82C5.552 11.522 6.124 12.093 6.825 12.093L9.05 12.093C9.752 12.093 10.323 11.522 10.323 10.82L10.323 7.873L10.322 7.873ZM8.449 9.394L8.449 10.362C8.449 10.6448 8.21977 10.874 7.937 10.874C7.65423 10.874 7.425 10.6448 7.425 10.362L7.425 9.394C7.425 9.11123 7.65423 8.882 7.937 8.882C8.21977 8.882 8.449 9.11123 8.449 9.394L8.449 9.394Z" id="Group" fill="#2563EB" stroke="none" />
  </g>
</svg>