<svg xmlns="http://www.w3.org/2000/svg" width="15" height="8.333" viewBox="0 0 15 8.333">
  <path id="Shape" d="M1.231,11.008C2.326,9.482,4.266,8.333,7.5,8.333s5.174,1.148,6.269,2.675A7.167,7.167,0,0,1,15,15.111a1.565,1.565,0,0,1-1.594,1.555H1.594A1.565,1.565,0,0,1,0,15.111a7.167,7.167,0,0,1,1.231-4.1ZM1.668,15H13.332a5.452,5.452,0,0,0-.917-3.02C11.686,10.964,10.3,10,7.5,10s-4.186.964-4.915,1.98A5.452,5.452,0,0,0,1.668,15Z" transform="translate(0 -8.333)" fill="#0f172a" fill-rule="evenodd"/>
</svg>
