<svg xmlns="http://www.w3.org/2000/svg" width="13.242" height="16.023" viewBox="3.558 1.807 13.242 16.023"><g data-name="svgexport-7 (16) 1"><g data-name="svgexport-16 (3)"><path d="M12.242 5.111H9.128a.35.35 0 1 1 0-.698h3.114a.025.025 0 0 0 .025-.025V2.53a.025.025 0 0 0-.025-.025H5.295a.025.025 0 0 0-.025.025v1.856c0 .014.011.026.025.026h1.524a.35.35 0 0 1 0 .698H5.295a.724.724 0 0 1-.723-.724V2.531c0-.4.324-.724.723-.724h6.947c.4 0 .724.325.724.724v1.856c0 .4-.324.724-.724.724Z" fill="#52525b" fill-rule="evenodd" data-name="Path 87"/><path d="M6.913 17.737H5.098a1.542 1.542 0 0 1-1.54-1.54V7.06c0-.85.69-1.539 1.54-1.54h.358v-.409a.35.35 0 1 1 .698 0v.758a.35.35 0 0 1-.349.35h-.707a.843.843 0 0 0-.842.841v9.137c0 .465.377.841.842.842h1.815a.35.35 0 0 1 0 .698Zm6.718-5.94a.35.35 0 0 1-.35-.35V7.06a.843.843 0 0 0-.841-.842h-.707a.35.35 0 0 1-.35-.349v-.758a.35.35 0 0 1 .7 0v.41h.357c.85 0 1.54.689 1.54 1.54v4.387a.35.35 0 0 1-.35.35Z" fill="#52525b" fill-rule="evenodd" data-name="Path 88"/><path d="M3.907 8.21h9.724v.698H3.907V8.21Zm2.964 6.813H4.256a.35.35 0 0 1 0-.699H6.87a.35.35 0 0 1 0 .699Zm1.898-1.486a.35.35 0 0 1-.35-.349v-3.12a.35.35 0 0 1 .699 0v3.12a.35.35 0 0 1-.35.35Z" fill="#52525b" fill-rule="evenodd" data-name="Path 89"/><path d="M10.329 11.978h-3.12a.35.35 0 0 1 0-.699h3.12a.35.35 0 0 1 0 .699Zm1.98 5.852H9.142a1.66 1.66 0 0 1-1.658-1.658 1.66 1.66 0 0 1 1.658-1.659h3.167a1.66 1.66 0 0 1 1.658 1.659 1.66 1.66 0 0 1-1.658 1.658Zm-3.167-2.619a.961.961 0 0 0 0 1.92h3.166a.961.961 0 0 0 0-1.92H9.142Z" fill="#52525b" fill-rule="evenodd" data-name="Path 90"/><path d="M10.376 14.862h.698v2.619h-.698v-2.619Zm4.762 2.966c-.269 0-.538-.064-.783-.196a.349.349 0 0 1 .331-.614c.374.199.834.131 1.135-.167a.962.962 0 0 0 0-1.358l-2.239-2.24a.964.964 0 0 0-1.358 0 .962.962 0 0 0 0 1.359.35.35 0 0 1-.494.494 1.66 1.66 0 0 1 0-2.346 1.661 1.661 0 0 1 2.346 0L16.315 15a1.66 1.66 0 0 1 0 2.345c-.313.31-.736.484-1.177.483Z" fill="#52525b" fill-rule="evenodd" data-name="Path 91"/><path d="m14.702 13.877.493.494-1.407 1.407-.493-.494 1.407-1.407Z" fill="#52525b" fill-rule="evenodd" data-name="Path 92"/></g></g></svg>