<?xml version="1.0" encoding="utf-8"?>
<svg width="13.242px" height="16.023px" viewBox="0 0 13.242 16.023" version="1.1" xmlns:xlink="http://www.w3.org/1999/xlink" xmlns="http://www.w3.org/2000/svg">
  <defs>
    <path d="M0 0L13.242 0L13.242 16.023L0 16.023L0 0Z" id="path_1" />
    <clipPath id="clip_1">
      <use xlink:href="#path_1" />
    </clipPath>
  </defs>
  <g id="treatementicon" clip-path="url(#clip_1)">
    <path d="M0 0L13.242 0L13.242 16.023L0 16.023L0 0Z" id="treatementicon" fill="none" fill-rule="evenodd" stroke="none" />
    <path d="M8.684 3.304L5.57 3.304C5.43901 3.31392 5.31349 3.24966 5.24496 3.13758C5.17643 3.02551 5.17643 2.88449 5.24496 2.77242C5.31349 2.66034 5.43901 2.59608 5.57 2.606L8.684 2.606C8.69781 2.606 8.709 2.59481 8.709 2.581L8.709 0.723C8.709 0.709193 8.69781 0.698 8.684 0.698L1.737 0.698C1.72319 0.698 1.712 0.709193 1.712 0.723L1.712 2.579C1.712 2.593 1.723 2.605 1.737 2.605L3.261 2.605C3.44352 2.61883 3.58456 2.77096 3.58456 2.954C3.58456 3.13704 3.44352 3.28917 3.261 3.303L1.737 3.303C1.33754 3.30245 1.014 2.97846 1.014 2.579L1.014 0.724C1.014 0.324 1.338 -1.19209e-07 1.737 -1.19209e-07L8.684 -1.19209e-07C9.084 -1.19209e-07 9.408 0.325 9.408 0.724L9.408 2.58C9.408 2.98 9.084 3.304 8.684 3.304L8.684 3.304ZM3.355 15.93L1.54 15.93C0.689938 15.9289 0.00110149 15.2401 0 14.39L0 5.253C0 4.403 0.69 3.714 1.54 3.713L1.898 3.713L1.898 3.304C1.88808 3.17301 1.95234 3.04749 2.06442 2.97896C2.17649 2.91043 2.31751 2.91043 2.42958 2.97896C2.54166 3.04749 2.60592 3.17301 2.596 3.304L2.596 4.062C2.596 4.25491 2.43991 4.41145 2.247 4.412L1.54 4.412C1.07559 4.41255 0.6991 4.7886 0.697999 5.253L0.697999 14.39C0.697999 14.855 1.075 15.231 1.54 15.232L3.355 15.232C3.53752 15.2458 3.67856 15.398 3.67856 15.581C3.67856 15.764 3.53752 15.9162 3.355 15.93L3.355 15.93ZM10.073 9.99C9.8797 9.99 9.723 9.8333 9.723 9.64L9.723 5.253C9.72247 4.78863 9.34644 4.41212 8.88203 4.411L8.17503 4.411C7.98212 4.411 7.82558 4.25491 7.82503 4.062L7.82503 3.304C7.82517 3.1108 7.98183 2.95425 8.17503 2.95425C8.36824 2.95425 8.5249 3.1108 8.52503 3.304L8.52503 3.714L8.88203 3.714C9.73203 3.714 10.422 4.403 10.422 5.254L10.422 9.641C10.422 9.8343 10.2653 9.991 10.072 9.991L10.073 9.99ZM0.349 6.403L10.073 6.403L10.073 7.403L0.349 7.403L0.349 6.403L0.349 6.403ZM3.313 13.517L0.698 13.517C0.512232 13.5028 0.366698 13.2831 0.366698 13.017C0.366698 12.7509 0.512232 12.5312 0.698 12.517L3.312 12.517C3.49777 12.5312 3.6433 12.7509 3.6433 13.017C3.6433 13.2831 3.49777 13.5028 3.312 13.517L3.313 13.517ZM5.36172 11.73C5.08574 11.73 4.86179 11.5739 4.861 11.381L4.861 8.261C4.87522 8.07523 5.09486 7.9297 5.361 7.9297C5.62714 7.9297 5.84678 8.07523 5.861 8.261L5.861 11.381C5.861 11.5743 5.63682 11.731 5.36028 11.731L5.36172 11.73ZM6.771 10.472L3.651 10.472C3.46523 10.4578 3.3197 10.2381 3.3197 9.972C3.3197 9.70586 3.46523 9.48622 3.651 9.472L6.771 9.472C6.95677 9.48622 7.1023 9.70586 7.1023 9.972C7.1023 10.2381 6.95677 10.4578 6.771 10.472L6.771 10.472ZM8.751 16.023L5.584 16.023C4.66877 16.0219 3.9271 15.2802 3.926 14.365C3.92663 13.4492 4.66853 12.707 5.58415 12.706L8.75115 12.706C9.66677 12.7071 10.4086 13.4494 10.4091 14.365C10.4081 15.2802 9.66639 16.0219 8.75116 16.023L8.751 16.023ZM5.584 13.404C5.07083 13.4274 4.66683 13.8503 4.66683 14.364C4.66683 14.8777 5.07083 15.3006 5.584 15.324L8.75 15.324C9.26317 15.3006 9.66717 14.8777 9.66717 14.364C9.66717 13.8503 9.26317 13.4274 8.75 13.404L5.584 13.404L5.584 13.404ZM6.818 13.055L7.818 13.055L7.818 15.674L6.818 15.674L6.818 13.055L6.818 13.055ZM11.58 16.021C11.311 16.021 11.042 15.957 10.797 15.825C10.635 15.7299 10.5774 15.5237 10.6665 15.3584C10.7556 15.1931 10.9596 15.128 11.128 15.211C11.502 15.41 11.962 15.342 12.263 15.044C12.637 14.6686 12.637 14.0614 12.263 13.686L10.024 11.446C9.64815 11.0731 9.04185 11.0731 8.666 11.446C8.2913 11.8215 8.2913 12.4295 8.666 12.805C8.7882 12.9436 8.78162 13.1533 8.65096 13.284C8.52031 13.4146 8.31059 13.4212 8.172 13.299C7.52479 12.6509 7.52479 11.6011 8.172 10.953C8.82031 10.3063 9.86968 10.3063 10.518 10.953L12.757 13.193C13.4035 13.841 13.4035 14.89 12.757 15.538C12.444 15.848 12.021 16.022 11.58 16.021L11.58 16.021ZM11.144 12.07L11.637 12.564L10.23 13.971L9.737 13.477L11.144 12.07L11.144 12.07Z" id="Group" fill="#2563EB" stroke="none" />
  </g>
</svg>