<svg xmlns="http://www.w3.org/2000/svg" width="16" height="16" viewBox="0 0 16 16">
  <g id="tick-circle-svgrepo-com" transform="translate(-1.25 -1.25)">
    <path id="Path_13" data-name="Path 13" d="M9.25,17.25a8,8,0,1,1,8-8A8.007,8.007,0,0,1,9.25,17.25Zm0-14.884A6.884,6.884,0,1,0,16.134,9.25,6.892,6.892,0,0,0,9.25,2.366Z" transform="translate(0 0)" fill="#2563eb"/>
    <path id="Path_14" data-name="Path 14" d="M9.262,12.941a.473.473,0,0,1-.335-.139L7.139,11.014a.474.474,0,0,1,.67-.67L9.262,11.8,12.51,8.55a.474.474,0,1,1,.67.67L9.6,12.8A.473.473,0,0,1,9.262,12.941Z" transform="translate(-0.91 -1.43)" fill="#2563eb"/>
  </g>
</svg>
