<svg xmlns="http://www.w3.org/2000/svg" width="66.235" height="19.87" viewBox="0 0 66.235 19.87">
  <g id="Group" transform="translate(-6 -10.3)">
    <path id="polygon9" d="M5.365,19.235H0L3.356,0H8.721Z" transform="translate(29.336 10.648)" fill="#00579f"/>
    <path id="path11" d="M16.095.819l-.73,4.154-.485-.2a9.732,9.732,0,0,0-4-.736c-2.118,0-3.068.838-3.09,1.657,0,.9,1.149,1.494,3.026,2.374,3.091,1.371,4.525,3.049,4.5,5.238-.043,3.99-3.709,6.569-9.338,6.569A17.462,17.462,0,0,1,0,18.847l.751-4.318.707.307a11.384,11.384,0,0,0,5.034,1.023c1.545,0,3.2-.594,3.222-1.883,0-.839-.706-1.453-2.781-2.395C4.9,10.661,2.186,9.126,2.23,6.364,2.253,2.619,5.984,0,11.283,0A14.14,14.14,0,0,1,16.1.819Z" transform="translate(38.057 10.3)" fill="#00579f"/>
    <path id="path13" d="M12.761,12.421c-.221-.962-1.237-5.566-1.237-5.566L11.149,5.2c-.265.716-.728,1.883-.706,1.842,0,0-1.7,4.277-2.142,5.382h4.46ZM14.924,0l4.329,19.235H14.285s-.486-2.21-.64-2.885H6.756L5.63,19.235H0L7.97,1.6a2.673,2.673,0,0,1,2.8-1.6h4.15Z" transform="translate(52.982 10.648)" fill="#00579f"/>
    <path id="path15" d="M13.247,0H18.92L10.487,19.215H4.813L0,2.394a15.079,15.079,0,0,1,7.418,8.063l.574,2.66L13.247,0Z" transform="translate(11.608 10.648)" fill="#00579f"/>
    <path id="path17" d="M11.149,1.617l1.877,8.84C11.194,5.832,6.734,1.985,0,.389L.088,0H8.721c1.17.041,2.12.388,2.428,1.617Z" transform="translate(6 10.648)" fill="#faa61a"/>
  </g>
</svg>
